<?xml version="1.0" encoding="UTF-8"?>
<svg xmlns="http://www.w3.org/2000/svg" viewBox="0 0 1080 1080">
  <defs>
    <style>
      .cls-1 {
        font-family: MachoModular-Medium, MachoModular;
        font-size: 54.35px;
        font-weight: 500;
      }

      .cls-1, .cls-2 {
        fill: #fff;
      }

      .cls-3 {
        fill: #55106f;
      }
    </style>
  </defs>
  <rect class="cls-3" width="1080" height="1080"/>
  <g id="Layer_1" data-name="Layer 1">
    <g>
      <path class="cls-2" d="M330.4,485.06c-.53-5.72-2.93-10.47-6.64-14.51-12.54-13.64-30.95-14.67-48.22-10.27-27.35,6.97-50.66,25.86-62.94,51.44-14.25,29.67-16.27,65.76-3.39,96.28,6.18,14.64,15.65,27.42,27.43,38,7.55,6.78,16,11.68,25.77,14.31,5.08,1.37,10.15,1.56,15.49,1.31,9.11-.42,17.57-3.8,25.09-8.84,13.97-9.35,26.34-27.38,34.16-42.15,4.68-8.85,8.38-17.73,12.08-26.99,2.18-5.45,4.83-12.87,10.71-12.43,2.41.18,4.43,1.68,5.61,4.2,4.84,10.38.86,27-3.64,37.38-8.3,19.14-20.7,36.19-36.15,50.18-8.66,7.84-18.11,14.06-28.72,18.68s-20.53,6.43-31.74,6.74c-48.35,1.31-85.27-36.84-95.62-82.08-5.21,9.1-12.78,16.52-22.38,20.96-6.24,2.89-12.84,3.64-19.76,3.17-8.99-.61-17.09-4.64-23.83-10.53-9.42-8.23-14.91-19.71-15.26-32.21-.22-7.8,1.1-14.95,4.77-21.77,5.32-9.89,13.74-17.2,24.25-21.38-7.91-5.2-14.17-11.78-18.31-19.98-3.33-6.58-4.3-13.33-4.25-20.65.13-21.71,15.8-38.39,37.23-41.14-11.81-15.92-12.23-38.41-1.69-55.04s31.75-20.78,48.01-10.44c21.42,13.62,29.93,39.91,35.52,63.41,8.39-7.04,17.32-12.2,26.99-16.57,15.36-6.94,31.63-9.7,48.52-9.11,11.03.39,21.35,2.63,31.56,6.59,8.34,3.24,15.52,6.19,23.44.57,4.46-3.16,7.64-7.95,7.26-13.67-5.04,4.98-12.93,4.27-17.22-1.25-5.61-7.22-3.25-17.4,4.82-21.93,5.28-2.96,11.68-2.55,17.02.6,6.7,3.96,10.52,11.5,9.81,19.38-1.31,14.69-15.96,25.03-28.4,30.43,17.02,2.3,37.5-.93,52.65-8.16,6.82-3.26,16.57-9.34,18.62-17.07-2.12,2.02-4.15,3.65-7.08,4-6.59.79-12.8-2.98-15.12-9.25-3.07-8.3.2-17.22,7.92-21.72,5.76-3.36,12.97-3.65,19.55-.36,11.48,5.74,14.22,19.36,7.48,30.32-12.93,21.05-45.66,31.47-69.2,32.09l-9.9.26c2.62,6.46,4.69,12.88,4.94,19.91.36,9.77-3.74,18.99-11.35,24.82-8.2,6.29-19.05,4.93-20.59-.69-1.42-5.16,2.7-7.94,6.74-10.28,5.17-2.99,8.55-8.16,7.96-14.55ZM171.31,451.85c8.75-7.97,11.92-24.06,3.12-32.47-4.46-4.26-11.25-4.42-16.17-.61-11.94,9.24-12.71,27.59-3.38,34.55,4.9,3.66,11.69,2.84,16.43-1.48ZM189.34,487.52l12.59-15.3c1.89-2.3,3-5.85.75-8.12-3-3.02-7.96-2.63-11.39-.24-5.55,3.86-9.24,9.72-10.51,16.41-.46,2.42-.04,5.22,1.4,7.14,1.73,2.3,5.38,2.27,7.17.11ZM148.37,516.3c6.88-6.05,10.14-15.47,7.95-24.3-1.58-6.37-6.96-10.04-13.45-9.45-4.76.43-8.86,2.93-12.16,6.35-9.92,10.29-7.5,26.13,1.67,30.2,5.41,2.4,11.6,1.07,15.98-2.79ZM170.92,528.68c2.29-9.97,5.89-19.06,10.58-28.05-1.91-2.86-5.15-3.98-8.51-3.71-2.94.24-5.73,2.09-7.37,5.08-4.56,8.34-5.15,22.73,5.3,26.68ZM166.62,563.68c-.32-9.2.41-17.82,2.44-26.57-4.69-1.32-9.43-.61-13.14,2.12-3.13,2.31-4.82,5.83-4.09,9.95,1.27,7.23,7.38,13.4,14.8,14.51ZM132.13,596.05c4.41.6,8.1-.87,11.29-3.76,7.71-6.99,10.49-18.28,6.77-27.96-2.74-7.13-10.31-9.96-17.11-6.27-6.79,3.68-11.39,10.87-12.69,18.6-1.43,8.46,2.86,18.19,11.74,19.4Z"/>
      <path class="cls-2" d="M295,584.08c-3.03-6.16,4.67-10.97,4.55-18.84-.05-3.49-2.1-6.29-5.33-7.18-9.75-2.68-18.02,8-21.87,15.64-5.6,11.11-7.67,23.49-5.36,35.74.93,4.94,2.75,9.43,5.78,13.29,6.16,7.85,15.39,7.81,24.17,4.91,2.67-.88,7.71-2.08,9.42.51.4.6.25,2.32-.2,2.98-5.14,7.55-16.92,9.81-25.49,10.11-11.12.4-21.62-2.07-31.28-7.79-14.65-8.69-24.91-22.72-29.56-39.16-7.6-26.84-3.89-60.35,8.87-85.07,10.42-20.18,29.76-36.71,53.25-37.6,7.59-.29,14.79,1.59,20.56,6.5,10.22,8.69,11,23.74,4.78,34.8-5.08,9.03-13.11,15.48-22.53,19.73-13.3,5.95-33.29,6.24-47.2.86-7.18,17.1-8.16,33.84-5.51,52.21,2.43,14.15,9.48,30.77,22.7,38.56-4.03-6.55-7.46-13.1-8.73-20.87-2.85-17.4,1.68-35.18,12.52-49.03,3.46-4.42,7.25-7.95,11.94-10.95,9.86-6.3,22.36-7.83,33.01-3.05,9.87,4.43,16.53,13.44,16.53,24.34,0,9.8-6.89,21.63-17.08,22.88-3.05.37-6.5-.57-7.95-3.5ZM291.42,511.01c3.37-3.76,5.37-8.29,4.88-13.25-.57-5.8-4.91-9.76-10.82-10.15-6.9-.45-13.64,1.96-19.62,5.67-11.25,6.98-17.55,17.91-21.66,30.13,17.39,4.94,35.47.72,47.22-12.41Z"/>
    </g>
    <g>
      <g>
        <path class="cls-2" d="M471.39,583.55c-33.27,0-45.96-18.45-45.96-51.01s11.25-51.01,45.8-51.01c7.71,0,18.96,1.2,27.32,2.25l-2.25,17.7c-7.71-1.05-19.29-2.1-24.91-2.1-19.12,0-23.78,12.6-23.78,33.16,0,19.2,4.98,32.86,24.11,32.86,4.98,0,17.03-.9,23.62-1.5l2.09,17.55c-7.71,1.05-18.32,2.1-26.04,2.1Z"/>
        <path class="cls-2" d="M532.3,513.19c4.5-2.4,12.21-6.45,20.25-6.45,15.27,0,26.84,13.35,26.84,29.1v45.91h-20.73v-43.36c0-6.3-5.3-14.4-12.05-14.4-4.82,0-9.96,2.55-14.3,5.25v52.51h-20.73v-101.57l20.73-.45v33.46Z"/>
        <path class="cls-2" d="M616.35,518.74c15.43-9.45,20.73-12,30.05-12l-.48,19.2c-4.82.3-22.02,4.95-28.93,7.35v48.46h-20.73v-73.66h19.28l.8,10.65Z"/>
        <path class="cls-2" d="M698.8,508.09h22.5l-23.3,80.11c-4.66,15.75-12.86,24.75-29.41,24.75-4.82,0-12.21-.75-12.21-.75l1.77-16.65s6.43.3,9.8.3c4.5,0,8.36-3.6,9.64-7.35l2.25-6.75h-10.93l-22.5-73.66h22.5l14.95,56.71h.96l13.98-56.71Z"/>
        <path class="cls-2" d="M783.49,526.69c-6.75-1.2-23.46-3.75-28.12-3.75s-8.36,1.8-8.36,5.7c0,3.15,1.77,4.35,15.75,8.1,19.28,5.25,24.43,9.9,24.43,22.5,0,15.3-10.61,24.3-28.12,24.3-8.04,0-23.3-2.55-33.11-4.2l3.05-16.2c6.91,1.5,26.04,4.2,29.57,4.2,4.34,0,7.88-2.1,7.88-6.15,0-3.3-2.73-5.1-17.04-8.7-17.2-4.35-23.14-10.5-23.14-22.5,0-15.15,12.54-23.25,28.93-23.25,6.43,0,21.86,2.25,31.02,3.75l-2.73,16.2Z"/>
        <path class="cls-2" d="M801.81,513.79c8.2-2.55,26.2-7.05,33.91-7.05,21.37,0,31.5,8.7,31.5,28.65v27.75c.32,3.75,3.21,17.55,3.21,17.55l-17.52,3c-1.45-2.1-4.18-6.75-4.82-9.45h-.32c-6.59,4.95-17.68,9.3-26.68,9.3-13.34,0-21.7-11.85-21.7-23.85,0-14.4,14.3-19.65,29.89-21.75,3.21-.45,14.95-1.5,17.2-1.5v-3.15c0-7.95-4.98-10.05-13.02-10.05-5.14,0-22.5,4.5-27.16,5.85l-4.5-15.3ZM846.65,559.4v-8.85c-3.38,0-12.21.45-14.79.9-6.11,1.05-11.57,2.1-11.57,7.5,0,3.75,2.41,8.55,6.59,8.55,5.79,0,15.11-4.2,19.77-8.1Z"/>
        <path class="cls-2" d="M888.11,480.19l20.73-.45v82.81c0,3.6.8,4.5,4.18,4.5,1.93,0,4.82-.45,6.59-.75l1.77,15.15c-6.43,1.2-11.41,2.1-14.62,2.1-13.66,0-18.64-4.8-18.64-17.55v-85.81Z"/>
        <path class="cls-2" d="M932.47,498.04v-17.55h21.05v17.55h-21.05ZM953.36,581.75h-20.73v-73.66h20.73v73.66Z"/>
        <path class="cls-2" d="M1024.55,526.69c-6.75-1.2-23.46-3.75-28.12-3.75s-8.36,1.8-8.36,5.7c0,3.15,1.77,4.35,15.75,8.1,19.28,5.25,24.43,9.9,24.43,22.5,0,15.3-10.61,24.3-28.12,24.3-8.04,0-23.3-2.55-33.11-4.2l3.05-16.2c6.91,1.5,26.03,4.2,29.57,4.2,4.34,0,7.88-2.1,7.88-6.15,0-3.3-2.73-5.1-17.04-8.7-17.2-4.35-23.14-10.5-23.14-22.5,0-15.15,12.54-23.25,28.93-23.25,6.43,0,21.86,2.25,31.02,3.75l-2.73,16.2Z"/>
      </g>
      <text class="cls-1" transform="translate(442.98 647.62) scale(1.07 1)"><tspan x="0" y="0">The Enrichment Center</tspan></text>
    </g>
  </g>
</svg>