<?xml version="1.0" encoding="UTF-8"?>
<svg xmlns="http://www.w3.org/2000/svg" viewBox="0 0 1080 1080">
  <defs>
    <style>
      .cls-1 {
        fill: #fff;
      }

      .cls-2 {
        fill: #55106f;
      }
    </style>
  </defs>
  <rect class="cls-2" width="1080" height="1080"/>
  <g id="Layer_1" data-name="Layer 1">
    <g>
      <path class="cls-1" d="M713.76,410.07c-1.25-13.53-6.92-24.77-15.7-34.32-29.66-32.26-73.21-34.69-114.03-24.28-64.69,16.49-119.81,61.17-148.86,121.65-33.7,70.18-38.49,155.53-8.01,227.7,14.62,34.63,37.01,64.85,64.88,89.87,17.86,16.04,37.83,27.62,60.95,33.84,12.01,3.24,23.99,3.69,36.62,3.11,21.56-1,41.55-8.99,59.35-20.91,33.03-22.11,62.3-64.75,80.78-99.68,11.07-20.93,19.81-41.93,28.56-63.82,5.15-12.89,11.42-30.43,25.34-29.39,5.7.43,10.49,3.98,13.26,9.93,11.46,24.54,2.03,63.86-8.62,88.4-19.63,45.28-48.97,85.58-85.5,118.67-20.48,18.55-42.82,33.24-67.93,44.18-24.3,10.59-48.56,15.21-75.06,15.93-114.34,3.09-201.65-87.13-226.14-194.12-12.33,21.51-30.22,39.06-52.93,49.57-14.76,6.83-30.37,8.6-46.74,7.5-21.26-1.43-40.43-10.98-56.35-24.9-22.27-19.46-35.27-46.61-36.09-76.18-.51-18.46,2.6-35.35,11.27-51.49,12.58-23.4,32.48-40.67,57.34-50.57-18.7-12.29-33.5-27.86-43.31-47.26-7.86-15.56-10.17-31.52-10.06-48.85.31-51.34,37.37-90.79,88.05-97.31-27.93-37.65-28.91-90.83-3.99-130.17,25.38-40.06,75.09-49.15,113.55-24.7,50.67,32.22,70.77,94.38,84,149.96,19.85-16.66,40.96-28.85,63.84-39.18,36.34-16.41,74.82-22.93,114.75-21.54,26.08.91,50.48,6.21,74.65,15.58,19.73,7.65,36.71,14.64,55.44,1.35,10.54-7.48,18.07-18.81,17.16-32.33-11.93,11.77-30.58,10.1-40.73-2.96-13.28-17.09-7.7-41.14,11.4-51.86,12.48-7,27.63-6.03,40.26,1.43,15.84,9.36,24.87,27.19,23.21,45.84-3.09,34.74-37.75,59.2-67.16,71.97,40.24,5.43,88.7-2.2,124.51-19.29,16.14-7.7,39.18-22.09,44.03-40.37-5.01,4.79-9.8,8.62-16.74,9.46-15.58,1.88-30.27-7.06-35.75-21.89-7.26-19.63.48-40.72,18.74-51.38,13.63-7.95,30.67-8.64,46.22-.86,27.15,13.58,33.62,45.8,17.7,71.72-30.59,49.79-107.99,74.42-163.67,75.88l-23.42.61c6.2,15.27,11.08,30.47,11.69,47.09.85,23.11-8.85,44.9-26.85,58.71-19.4,14.88-45.04,11.66-48.69-1.63-3.35-12.19,6.38-18.77,15.94-24.3,12.23-7.07,20.23-19.29,18.83-34.41ZM337.51,331.53c20.71-18.84,28.2-56.91,7.39-76.79-10.54-10.07-26.6-10.45-38.24-1.44-28.24,21.86-30.06,65.25-8.01,81.72,11.59,8.66,27.64,6.71,38.86-3.49ZM380.15,415.89l29.77-36.18c4.47-5.43,7.1-13.84,1.77-19.19-7.1-7.13-18.82-6.22-26.94-.57-13.11,9.13-21.86,23-24.86,38.8-1.08,5.71-.1,12.35,3.31,16.89,4.09,5.44,12.73,5.38,16.95.26ZM283.25,483.96c16.27-14.32,23.99-36.58,18.81-57.48-3.74-15.08-16.46-23.74-31.81-22.35-11.25,1.01-20.95,6.92-28.75,15.01-23.46,24.33-17.73,61.8,3.95,71.42,12.8,5.68,27.44,2.52,37.8-6.6ZM336.58,513.22c5.4-23.58,13.92-45.07,25.02-66.34-4.51-6.76-12.17-9.41-20.13-8.78-6.96.56-13.56,4.95-17.43,12.02-10.79,19.73-12.18,53.76,12.54,63.09ZM326.42,596c-.77-21.77.98-42.14,5.76-62.85-11.09-3.12-22.31-1.44-31.09,5-7.4,5.47-11.39,13.79-9.68,23.52,3,17.11,17.45,31.68,35.01,34.32ZM244.85,672.55c10.43,1.42,19.16-2.06,26.71-8.9,18.23-16.52,24.8-43.24,16.01-66.13-6.47-16.86-24.39-23.56-40.47-14.84-16.07,8.71-26.94,25.71-30.02,44-3.37,20,6.77,43.02,27.77,45.87Z"/>
      <path class="cls-1" d="M630.04,644.24c-7.17-14.56,11.04-25.93,10.75-44.57-.13-8.25-4.96-14.88-12.62-16.98-23.05-6.33-42.61,18.92-51.72,36.99-13.25,26.28-18.14,55.57-12.68,84.53,2.2,11.68,6.5,22.3,13.67,31.43,14.58,18.56,36.39,18.47,57.16,11.61,6.31-2.09,18.24-4.93,22.27,1.2.94,1.42.59,5.48-.48,7.05-12.15,17.84-40.02,23.2-60.27,23.92-26.3.94-51.14-4.89-73.97-18.43-34.65-20.56-58.91-53.73-69.92-92.62-17.97-63.49-9.19-142.73,20.99-201.19,24.64-47.73,70.38-86.81,125.93-88.93,17.95-.68,34.99,3.77,48.63,15.37,24.18,20.56,26.02,56.15,11.31,82.29-12.02,21.36-31.01,36.62-53.28,46.67-31.45,14.07-78.72,14.76-111.62,2.03-16.98,40.43-19.3,80.04-13.03,123.48,5.75,33.46,22.41,72.78,53.69,91.19-9.53-15.49-17.64-30.99-20.65-49.35-6.75-41.16,3.97-83.2,29.61-115.96,8.18-10.45,17.15-18.8,28.24-25.89,23.32-14.9,52.87-18.52,78.06-7.22,23.35,10.48,39.1,31.79,39.1,57.56,0,23.17-16.29,51.15-40.39,54.1-7.2.88-15.37-1.34-18.79-8.28ZM621.56,471.45c7.96-8.9,12.7-19.6,11.54-31.33-1.36-13.72-11.61-23.08-25.59-24-16.31-1.07-32.26,4.64-46.41,13.42-26.61,16.51-41.5,42.35-51.22,71.26,41.12,11.69,83.89,1.71,111.68-29.34Z"/>
    </g>
  </g>
</svg>