<?xml version="1.0" encoding="UTF-8"?>
<svg xmlns="http://www.w3.org/2000/svg" viewBox="0 0 1080 1080">
  <defs>
    <style>
      .cls-1 {
        font-family: MachoModular-Medium, MachoModular;
        font-size: 83.56px;
        font-weight: 500;
      }

      .cls-1, .cls-2, .cls-3 {
        fill: #fff;
      }

      .cls-2 {
        font-family: MachoModular-Bold, MachoModular;
        font-size: 176.99px;
        font-weight: 700;
      }

      .cls-4 {
        fill: #55106f;
      }
    </style>
  </defs>
  <rect class="cls-4" width="1080" height="1080"/>
  <g id="Layer_1" data-name="Layer 1">
    <g>
      <path class="cls-3" d="M612.7,311.86c-.52-5.66-2.9-10.36-6.57-14.36-12.41-13.5-30.63-14.51-47.71-10.16-27.07,6.9-50.13,25.59-62.28,50.9-14.1,29.36-16.1,65.07-3.35,95.27,6.12,14.49,15.48,27.13,27.14,37.6,7.47,6.71,15.83,11.56,25.5,14.16,5.03,1.35,10.04,1.55,15.32,1.3,9.02-.42,17.38-3.76,24.83-8.75,13.82-9.25,26.07-27.09,33.8-41.71,4.63-8.76,8.29-17.54,11.95-26.7,2.16-5.39,4.78-12.73,10.6-12.3,2.39.18,4.39,1.67,5.55,4.15,4.79,10.27.85,26.72-3.61,36.99-8.21,18.94-20.49,35.81-35.78,49.65-8.57,7.76-17.92,13.91-28.42,18.49s-20.32,6.37-31.41,6.66c-47.84,1.29-84.37-36.46-94.62-81.22-5.16,9-12.65,16.34-22.15,20.74-6.17,2.86-12.71,3.6-19.55,3.14-8.9-.6-16.91-4.6-23.58-10.42-9.32-8.14-14.76-19.5-15.1-31.87-.21-7.72,1.09-14.79,4.72-21.54,5.26-9.79,13.59-17.02,23.99-21.16-7.83-5.14-14.02-11.66-18.12-19.77-3.29-6.51-4.25-13.19-4.21-20.44.13-21.48,15.63-37.99,36.84-40.71-11.69-15.75-12.1-38-1.67-54.46s31.42-20.57,47.51-10.33c21.2,13.48,29.61,39.49,35.15,62.74,8.31-6.97,17.14-12.07,26.71-16.39,15.2-6.86,31.3-9.6,48.01-9.01,10.91.38,21.12,2.6,31.23,6.52,8.26,3.2,15.36,6.13,23.2.56,4.41-3.13,7.56-7.87,7.18-13.53-4.99,4.92-12.8,4.22-17.04-1.24-5.56-7.15-3.22-17.21,4.77-21.7,5.22-2.93,11.56-2.53,16.85.6,6.63,3.92,10.41,11.38,9.71,19.18-1.29,14.54-15.79,24.77-28.1,30.11,16.84,2.27,37.11-.92,52.1-8.07,6.75-3.22,16.39-9.24,18.42-16.89-2.1,2-4.1,3.61-7.01,3.96-6.52.78-12.66-2.95-14.96-9.16-3.04-8.21.2-17.04,7.84-21.5,5.7-3.33,12.83-3.62,19.34-.36,11.36,5.68,14.07,19.16,7.41,30.01-12.8,20.83-45.18,31.14-68.48,31.75l-9.8.26c2.6,6.39,4.64,12.75,4.89,19.7.36,9.67-3.7,18.79-11.23,24.56-8.12,6.22-18.85,4.88-20.37-.68-1.4-5.1,2.67-7.86,6.67-10.17,5.12-2.96,8.46-8.07,7.88-14.4ZM455.28,279c8.66-7.88,11.8-23.81,3.09-32.13-4.41-4.22-11.13-4.37-16-.6-11.82,9.15-12.58,27.3-3.35,34.19,4.85,3.62,11.57,2.81,16.26-1.46ZM473.12,314.3l12.46-15.14c1.87-2.27,2.97-5.79.74-8.03-2.97-2.98-7.87-2.6-11.27-.24-5.49,3.82-9.15,9.62-10.4,16.23-.45,2.39-.04,5.17,1.38,7.07,1.71,2.27,5.33,2.25,7.09.11ZM432.57,342.77c6.81-5.99,10.04-15.31,7.87-24.05-1.56-6.31-6.89-9.93-13.31-9.35-4.71.42-8.76,2.9-12.03,6.28-9.82,10.18-7.42,25.86,1.65,29.88,5.36,2.38,11.48,1.05,15.82-2.76ZM454.89,355.02c2.26-9.86,5.82-18.86,10.47-27.75-1.89-2.83-5.09-3.94-8.42-3.67-2.91.23-5.67,2.07-7.29,5.03-4.52,8.25-5.1,22.49,5.25,26.4ZM450.64,389.65c-.32-9.11.41-17.63,2.41-26.3-4.64-1.3-9.33-.6-13.01,2.09-3.1,2.29-4.77,5.77-4.05,9.84,1.25,7.16,7.3,13.26,14.65,14.36ZM416.51,421.68c4.36.59,8.02-.86,11.17-3.72,7.63-6.91,10.38-18.09,6.7-27.67-2.71-7.05-10.2-9.86-16.93-6.21s-11.27,10.76-12.56,18.41c-1.41,8.37,2.83,18,11.62,19.19Z"/>
      <path class="cls-3" d="M577.67,409.84c-3-6.09,4.62-10.85,4.5-18.65-.05-3.45-2.08-6.23-5.28-7.11-9.64-2.65-17.83,7.92-21.64,15.48-5.54,11-7.59,23.25-5.31,35.37.92,4.89,2.72,9.33,5.72,13.15,6.1,7.77,15.22,7.73,23.92,4.86,2.64-.87,7.63-2.06,9.32.5.39.6.25,2.29-.2,2.95-5.08,7.47-16.75,9.71-25.22,10.01-11,.39-21.4-2.05-30.95-7.71-14.5-8.6-24.65-22.48-29.25-38.75-7.52-26.56-3.84-59.72,8.78-84.18,10.31-19.97,29.45-36.32,52.69-37.21,7.51-.29,14.64,1.58,20.35,6.43,10.12,8.6,10.89,23.49,4.73,34.43-5.03,8.94-12.97,15.32-22.29,19.53-13.16,5.89-32.94,6.18-46.7.85-7.1,16.92-8.07,33.49-5.45,51.66,2.41,14,9.38,30.45,22.46,38.16-3.99-6.48-7.38-12.97-8.64-20.65-2.82-17.22,1.66-34.81,12.39-48.52,3.42-4.37,7.18-7.87,11.82-10.83,9.76-6.24,22.12-7.75,32.66-3.02,9.77,4.38,16.36,13.3,16.36,24.08,0,9.7-6.81,21.4-16.9,22.64-3.01.37-6.43-.56-7.86-3.47ZM574.13,337.54c3.33-3.72,5.32-8.2,4.83-13.11-.57-5.74-4.86-9.66-10.71-10.04-6.82-.45-13.5,1.94-19.42,5.61-11.13,6.91-17.36,17.72-21.43,29.81,17.2,4.89,35.1.71,46.73-12.28Z"/>
    </g>
    <text class="cls-1" transform="translate(103.62 785.19) scale(1.07 1)"><tspan x="0" y="0">The Enrichment Center</tspan></text>
    <text class="cls-2" transform="translate(177.39 681.92) scale(1.07 1)"><tspan x="0" y="0">Chrysalis</tspan></text>
  </g>
</svg>